# xmcd
#
# Track frame offsets:
#	150
#	22780
#	45063
#	69282
#	88873
#	113088
#	135141
#	159189
#	185054
#	212809
#
# Disc length: 3313 seconds
#
# Revision: 2
# Processed by: cddbd v1.5.2PL0 Copyright (c) Steve Scherf et al.
# Submitted via: EZCDAudioConverter 8.0.2.1
#
DISCID=6f0cef0a
DTITLE=Various Artist - Áo Hoa
DYEAR=1998
DGENRE=Country
TTITLE0=Mạnh Đình - Áo hoa
TTITLE1=Hạ Vy - Xe đạp ơi
TTITLE2=Phi Nhung - Ngũ Hành  năm cụm núi quê hương
TTITLE3=Mỹ Linh [Hải Ngoại] - Vui trong ngày cưới
TTITLE4=Phi Nhung - Đời Lan và Điệp
TTITLE5=Sơn Tuyền, Thái Châu - Thuyền hoa
TTITLE6=Hương Lan - Hạ thương
TTITLE7=Mỹ Linh [Hải Ngoại] - Vẫy tay chào
TTITLE8=Sơn Tuyền - Hành trình trên đất phù sa
TTITLE9=Trường Vũ - Ông lái đò
EXTD=
EXTT0=
EXTT1=
EXTT2=
EXTT3=
EXTT4=
EXTT5=
EXTT6=
EXTT7=
EXTT8=
EXTT9=
PLAYORDER=
